<?xml version="1.0" encoding="UTF-8"?>
<svg id="_图层_2" data-name="图层 2" xmlns="http://www.w3.org/2000/svg" viewBox="0 0 346.98 412.18">
  <defs>
    <style>
      .cls-1 {
        fill: #ffc051;
      }

      .cls-2, .cls-3 {
        fill: #fff;
      }

      .cls-4 {
        stroke: #ff367c;
      }

      .cls-4, .cls-5 {
        fill: none;
        stroke-linecap: round;
        stroke-linejoin: round;
        stroke-width: 2px;
      }

      .cls-3 {
        isolation: isolate;
        opacity: .3;
      }

      .cls-6 {
        fill: #ff367c;
      }

      .cls-5 {
        stroke: #263238;
      }

      .cls-7 {
        fill: #263238;
      }
    </style>
  </defs>
  <g id="Character">
    <g>
      <g id="Layer-2">
        <path class="cls-7" d="m244.63,75.57c-17.35,3.81-32.38,28-32.38,28,0,0-30.45-13.78-44.36-2.01-13.91,11.76-9.51,17.3,3.2,29.05,12.71,11.75,43.55,25.13,64.09,11.6,20.53-13.53,23.04-69.63,9.45-66.64Z"/>
      </g>
      <g id="Layer-6">
        <path class="cls-2" d="m179.78,113.82h25.85v81.8H1v-81.8h152.3v1.2s26.49-.1,26.49-.1l-.02-1.1Z"/>
      </g>
      <g id="Layer-3">
        <path class="cls-5" d="m170.76,113.82h34.88v81.8H1v-81.8h147.71"/>
      </g>
      <path class="cls-7" d="m234.71,159.95s-18.28,92.82-15.5,111.02c3.03,19.84,72.4,100.91,72.4,100.91l37.36-44.93-64-55.98-2.04-109.3-28.23-1.72Z"/>
      <path class="cls-6" d="m244.46,159.02l.95,228.34h55.71s-6.06-185.61-6.06-185.61c0,0,8.25-7.85,6.05-22.45-2.44-16.2-19.8-24.74-19.8-24.74l-36.86,4.46Z"/>
      <path class="cls-3" d="m253.22,165.71l-8.7,14.98.04,3.74,19.64.15-10.98-18.87Zm38.73,0l-10.9,18.72,20.45.15c.01-.85-.12-1.81-.18-2.72l-9.36-16.15Zm-20.45,27.39l-10.87,18.76,21.84.11-10.98-18.87Zm-18.28,29l-8.44,14.57v4.15l19.42.11-10.98-18.83Zm38.73,0l-10.9,18.72,15.31.07-.4-11.89-4-6.9Zm-20.45,27.39l-10.87,18.72,21.84.15-10.98-18.87Zm-18.28,29.04l-8.22,14.17.04,4.55,19.16.11-10.98-18.83Zm38.73,0l-10.9,18.72,17.14.07-.29-8.55-5.95-10.24Zm-20.45,27.39l-10.87,18.72,21.84.11-10.98-18.83Zm-18.28,28.97l-7.96,13.77v4.99l18.94.11-10.98-18.87Zm38.73,0l-10.9,18.76,18.98.11-.18-5.21-7.89-13.66Zm-20.45,27.42l-10.87,18.72,21.84.11-10.98-18.83Zm29.33,16.15l-1.5,2.57h1.58l-.07-2.57Z"/>
      <path class="cls-5" d="m290.51,390.49c0,4.96,0,20.24,0,20.24h-10.02l-.65-9.42-16.35,9.42s-37,1.22-40.32-.39c-3.94-1.92,3.5-6.29,13.66-11.23,8.53-4.14,21-8.39,21-8.39"/>
      <path class="cls-4" d="m255.8,399.12l-9.94-8.63"/>
      <path class="cls-4" d="m250.83,401.32l-9.94-8.63"/>
      <path class="cls-5" d="m325.26,337.03l20.72,15.81-7.03,10.4-8.54-6.33-1.43,21.94s-16.15,29.98-18.16,31.19c-3.8,2.27-3.91-8.65-2.9-18.33,1.19-11.39,4.2-22.87,4.2-22.87l-6.82-6.57"/>
      <path class="cls-4" d="m318.09,375.21l-12.79,3.65"/>
      <path class="cls-4" d="m317.2,380.63l-12.79,3.65"/>
      <path class="cls-1" d="m268.52,69.29c-10.57-.32-20.94,1.72-28.29,5.51-27.04,13.93-26.91,45.03-25.52,53.16,1.39,8.13,4.22,18.44,8.77,24.39-10.95,6.7-16.29,10.18-21.28,15.63-8.35,9.1-8.65,39.53,16.74,42.11,25.39,2.57,51.81-31.94,51.81-31.94l47.85-.74v-38.62c0-23.31.24-46.51-20.65-60.92-8.09-5.58-18.85-8.26-29.42-8.57Z"/>
      <path class="cls-2" d="m202.18,189.1s-12.75-13.42-19.26-11.34c-2.51.8-2.82,4.01.59,7.58,2.76,2.88,7.77,7.34,4.28,9.23-3.49,1.9-18.45-7.29-21.66-3.32-2.84,3.51,14.9,10.4,14.9,10.4,0,0-5.61-1.84-9.07-3.68-3.76-2-4.76-2.56-4.76-2.56,0,0-5.55,1.75,4.85,9.13,5.83,4.14,13.95,6.5,23.92,5.41,9.97-1.09,16.29-8.24,16.29-8.24"/>
      <path class="cls-2" d="m171.1,112s-22.9,15.45-24.59,11.22c-1.7-4.23,6.8-9.4,6.8-9.4h-25.36c0-4.52,18.49-7.12,18.49-7.12,0,0-6.75.73-10.42,2.09-4.22,1.57-6.9,2.83-6.9,2.83,0,0-.94-5.92,8.33-9.68,6.54-2.65,15.54-3.79,23.1-2.58,7.56,1.21,10.55,3.3,10.55,3.3"/>
      <path class="cls-2" d="m242.07,47.15c0-8.34,6.76-15.09,15.09-15.09s15.09,6.76,15.09,15.09-6.76,15.09-15.09,15.09-15.09-6.76-15.09-15.09Z"/>
      <path class="cls-7" d="m250.34,33.76s3.31,6.57,10.39,11.88c4.8,3.6,11.35,6.34,11.35,6.34l-4.98,6.79s7.03,8.56,17.74,4.04c4.93-2.08,6.35-11.53,2.55-15.55-5.15-5.46-5.96-3.7-8.6-7.52-2.13-3.08-1.54-9.67-11.65-13.04-7.45-2.48-12.68,1.65-12.68,1.65,0,0-6.69-2.21-10.64,1.18-6.73,5.77-2.41,15.82-2.41,15.82,0,0,1.62-5.97,4.51-8.75,2.34-2.26,4.42-2.83,4.42-2.83Z"/>
      <path class="cls-7" d="m253.41,44.47c.8-.38,1.75-.07,2.13.73.38.8.03,1.78-.77,2.16-.8.38-1.73.02-2.11-.78-.38-.8-.04-1.73.75-2.12Z"/>
      <path class="cls-7" d="m244.56,45.47c.8-.38,1.75-.07,2.12.73.38.8.03,1.78-.77,2.16-.8.38-1.73.02-2.11-.78-.38-.8-.04-1.73.75-2.12Z"/>
      <path class="cls-5" d="m246.8,58.87c-6.37-5.71-6.97-15.54-1.33-21.96,5.64-6.41,15.37-6.99,21.74-1.27,6.37,5.71,6.97,15.54,1.33,21.96-5.64,6.41-15.37,6.99-21.74,1.27Z"/>
      <path class="cls-6" d="m259.54,48.56c.22-.87-.3-1.74-1.16-1.95-.86-.21-1.73.32-1.94,1.18-.22.87.3,1.74,1.16,1.95.86.21,1.73-.32,1.94-1.18Z"/>
      <path class="cls-5" d="m255.68,51.55s-.26,1.66-1.61,2.79c-1.49,1.25-3.1,1.08-3.1,1.08"/>
      <path class="cls-5" d="m249.14,45.79l-.88,6.52,3.52-.97"/>
      <path class="cls-7" d="m271.39,22.27c0-5.21,4.22-9.43,9.43-9.43s9.43,4.22,9.43,9.43-4.22,9.43-9.43,9.43-9.43-4.22-9.43-9.43Z"/>
      <path class="cls-7" d="m286.27,6.42c0-3.54,2.87-6.42,6.42-6.42s6.42,2.87,6.42,6.42-2.87,6.42-6.42,6.42-6.42-2.87-6.42-6.42Z"/>
      <g id="Layer-5">
        <path class="cls-5" d="m216.42,155.36l34.42-18.82s.9-9.16,6.13-22.19c5.23-13.02,11.77-19.86,11.77-19.86"/>
        <path class="cls-5" d="m299.11,119.71s-5.39,34.86-12.46,43.19c-7.07,8.33-35.74,34.98-35.74,34.98-7.98,6.7-22.51,15.03-34.49,12.35"/>
      </g>
      <path class="cls-5" d="m171.1,112s-22.9,15.45-24.59,11.22c-1.7-4.23,6.8-9.4,6.8-9.4h-25.36c0-4.52,18.49-7.12,18.49-7.12,0,0-6.75.73-10.42,2.09-4.22,1.57-6.9,2.83-6.9,2.83,0,0-.94-5.92,8.33-9.68,6.54-2.65,15.54-3.79,23.1-2.58,7.56,1.21,10.55,3.3,10.55,3.3"/>
      <path class="cls-7" d="m172.68,98.69c-5.43,2.28-8.39,11.32-6.17,16.28,6.75-.03,13.28-.05,13.28-.05l-.4-16.94-6.71.71Z"/>
      <path class="cls-5" d="m202.18,189.1s-12.75-13.42-19.26-11.34c-2.51.8-2.82,4.01.59,7.58,2.76,2.88,7.77,7.34,4.28,9.23-3.49,1.9-18.45-7.29-21.66-3.32-2.84,3.51,14.9,10.4,14.9,10.4,0,0-5.61-1.84-9.07-3.68-3.76-2-4.76-2.56-4.76-2.56,0,0-5.55,1.75,4.85,9.13,5.83,4.14,13.95,6.5,23.92,5.41,9.97-1.09,16.29-8.24,16.29-8.24"/>
      <path class="cls-1" d="m198.75,174.12c-2.73,9.34-1.57,31.8,17.05,35.48,7.55-9.6,4.32-28.58,4.32-28.58l-21.37-6.9Z"/>
    </g>
  </g>
</svg>